<?xml version="1.0"?>
<svg version="1.1" xmlns="http://www.w3.org/2000/svg" width="280" height="100" style=""><path fill="#2a8dd4" d="M16.310546875,66.2421875q0-0.966796875,0.0966796875-2.3095703125t0.4404296875-2.2236328125q0.12890625-0.30078125,0.5478515625-0.5908203125t0.880859375-0.3544921875t0.81640625,0.107421875t0.3544921875,0.751953125q0,1.009765625-0.04296875,2.556640625l0,0.666015625q0,1.181640625,0.107421875,2.255859375q0.150390625,1.41796875,0.64453125,2.384765625q0.4296875,0.880859375,1.353515625,0.880859375l0.171875,0q1.267578125-0.0859375,1.869140625-1.052734375t0.81640625-2.298828125q0.193359375-1.224609375,0.193359375-2.578125l0-0.2578125q-0.021484375-1.50390625-0.021484375-2.642578125q0-4.533203125-0.30078125-9.087890625t-0.30078125-9.130859375q0-0.751953125-0.064453125-1.6328125q-0.021484375-0.322265625-0.021484375-0.64453125q0-0.515625,0.064453125-0.98828125q0.107421875-0.751953125,0.5478515625-1.2568359375t1.4931640625-0.5048828125q0.580078125,0,1.0634765625,0.1396484375t0.8701171875,0.5693359375q0.494140625,5.5859375,0.81640625,11.3544921875t0.322265625,11.3974609375q0,1.93359375-0.322265625,3.888671875t-1.181640625,3.5234375t-2.384765625,2.556640625t-3.888671875,0.98828125q-1.41796875,0-2.36328125-0.5048828125t-1.5146484375-1.3857421875t-0.81640625-2.0517578125t-0.2470703125-2.5244140625z M32.99681640625,64.39453125q0-1.224609375,0.3115234375-2.5244140625t0.98828125-2.341796875t1.7080078125-1.697265625t2.4921875-0.6552734375q1.095703125,0,2.3095703125,0.3759765625t2.2236328125,1.07421875t1.6435546875,1.7080078125t0.6337890625,2.255859375q0,1.50390625-0.5478515625,2.857421875t-1.5361328125,2.4169921875t-2.3095703125,1.67578125t-2.8681640625,0.6123046875q-1.267578125,0-2.212890625-0.4619140625t-1.5791015625-1.2353515625t-0.9453125-1.826171875t-0.3115234375-2.234375z M36.15501953125,64.3515625q0,0.38671875,0.1181640625,1.138671875t0.3544921875,1.4716796875t0.6123046875,1.24609375t0.9130859375,0.4833984375q1.138671875-0.12890625,1.8798828125-0.7412109375t1.203125-1.4931640625t0.64453125-1.912109375t0.1826171875-1.955078125q0-1.181640625-0.4619140625-1.9765625t-1.5146484375-1.2890625q0,0.04296875,0.04296875,0.04296875t0.04296875-0.04296875l-0.537109375-0.12890625q-0.21484375-0.0859375-0.5263671875-0.193359375t-0.6123046875-0.47265625q-0.837890625,0.30078125-1.2998046875,0.7734375t-0.6982421875,1.1494140625t-0.2900390625,1.6220703125t-0.0537109375,2.27734375z M49.2748828125,57.970703125q0-0.880859375,0.3115234375-1.482421875t1.3212890625-0.6015625q0.38671875,0,0.966796875,0.1181640625t0.666015625,0.5908203125q0.21484375,1.267578125,0.236328125,2.75t0.150390625,2.79296875q0.494140625-0.966796875,1.267578125-2.083984375t1.76171875-2.0625t2.1484375-1.568359375t2.36328125-0.623046875q0.0859375,0,0.322265625,0.064453125t0.4404296875,0.1826171875t0.2470703125,0.2685546875t-0.236328125,0.279296875q-0.0859375,0.2578125-0.365234375,0.3115234375t-0.494140625,0.0537109375q-0.12890625,0-0.408203125-0.107421875q-1.58984375,0.837890625-2.70703125,2.27734375t-1.826171875,3.1904296875t-1.03125,3.6953125t-0.322265625,3.7919921875q0,0.923828125-0.4189453125,1.1171875t-1.3427734375,0.193359375q-0.494140625,0-1.0419921875-0.107421875t-0.7626953125-0.6875q-0.38671875-1.224609375-0.6337890625-2.814453125t-0.3759765625-3.2763671875t-0.1826171875-3.3193359375t-0.0537109375-2.943359375z M64.54318359375,63.728515625q0-1.67578125,0.3544921875-3.0400390625t1.1279296875-2.3095703125t2.0302734375-1.4716796875t3.0615234375-0.5263671875q1.009765625,0,2.0625,0.2685546875t1.8046875,0.9990234375q0-0.4296875,0.0859375-1.7724609375t0.21484375-3.1259765625t0.2685546875-3.73828125t0.2470703125-3.630859375t0.193359375-2.814453125t0.12890625-1.2890625q0.21484375-0.623046875,0.794921875-0.7412109375t1.095703125-0.1181640625q1.353515625,0,1.6650390625,0.4296875t0.3115234375,1.71875q0,4.705078125-0.4189453125,9.3671875t-0.4189453125,9.3671875q0,3.029296875,0.1181640625,6.0908203125t0.8486328125,6.0263671875l0.236328125,0.21484375l0.12890625,0.38671875l-0.322265625,0.494140625q-0.81640625,0.515625-1.890625,0.515625l-0.0859375,0q-1.095703125,0-2.01953125-0.515625q-0.34375-0.21484375-0.5693359375-1.2783203125t-0.3544921875-2.341796875t-0.193359375-2.4599609375t-0.107421875-1.67578125q-0.751953125,1.71875-2.0517578125,2.9541015625t-3.2763671875,1.2353515625q-1.546875,0-2.53515625-0.666015625t-1.5361328125-1.697265625t-0.7734375-2.3095703125t-0.2255859375-2.5458984375z M67.14279296875,63.857421875q0,0.494140625,0.1181640625,1.4609375t0.3759765625,1.93359375t0.7197265625,1.71875t1.2138671875,0.751953125q1.009765625-0.494140625,1.826171875-1.6435546875t1.4072265625-2.53515625t0.923828125-2.771484375t0.3330078125-2.3955078125q0-1.267578125-0.923828125-2.10546875t-2.212890625-0.837890625q-0.38671875,0-0.7841796875,0.150390625t-0.7412109375,0.34375q-0.794921875,0.751953125-1.2353515625,1.3642578125t-0.666015625,1.267578125t-0.2900390625,1.4501953125t-0.064453125,1.84765625z M84.881796875,63.986328125q0-1.4609375,0.3974609375-2.814453125t1.1923828125-2.4169921875t1.9873046875-1.697265625t2.7607421875-0.6337890625q0.966796875,0,2.1376953125,0.2900390625t2.2021484375,0.859375t1.71875,1.4501953125t0.6875,2.01953125q0,0.537109375-0.1826171875,0.81640625t-0.7412109375,0.279296875l-0.236328125-0.04296875q0.623046875,1.67578125,1.07421875,3.4375t0.880859375,3.5234375q0.171875,0.34375,0.2578125,0.6123046875t0.0859375,0.5263671875q0,0.34375-0.193359375,0.5693359375t-0.5048828125,0.3330078125t-0.64453125,0.150390625t-0.5908203125,0.04296875q-0.923828125,0-1.3857421875-0.322265625t-0.666015625-0.880859375t-0.2470703125-1.2568359375t-0.171875-1.4072265625q-0.2578125,0.837890625-0.6767578125,1.6328125t-0.98828125,1.4287109375t-1.3427734375,1.009765625t-1.740234375,0.3759765625q-1.41796875,0-2.384765625-0.81640625t-1.5576171875-2.0087890625t-0.859375-2.5458984375t-0.2685546875-2.513671875z M87.932578125,63.685546875q0,0.794921875,0.107421875,1.67578125t0.3544921875,1.740234375t0.6337890625,1.6220703125t0.966796875,1.3427734375q1.052734375-1.138671875,1.5576171875-2.771484375t0.90234375-3.1474609375t0.90234375-2.599609375t1.5576171875-1.0849609375q0.666015625,0,1.1171875,0.236328125q-0.21484375-0.537109375-0.708984375-1.0419921875t-1.1064453125-0.923828125t-1.267578125-0.6875t-1.2353515625-0.2685546875q-0.171875,0-0.3974609375,0.0537109375t-0.3544921875,0.0107421875q-0.880859375,0.2578125-1.4501953125,0.8916015625t-0.923828125,1.4931640625t-0.5048828125,1.76171875t-0.150390625,1.697265625z M103.52314453125,64.09375l0-0.623046875q0-0.7734375,0.04296875-1.4609375q0.04296875-0.966796875,0.04296875-1.58984375q0-0.34375,0.04296875-0.7841796875t0.21484375-0.6982421875q0.21484375-0.21484375,0.5048828125-0.4404296875t0.6337890625-0.2255859375q1.095703125,0,1.71875,0.2470703125t0.666015625,1.0205078125l0.0859375,0.666015625q0.38671875-0.923828125,1.03125-2.2880859375t1.4931640625-2.599609375t1.912109375-2.10546875t2.2451171875-0.8701171875q1.095703125,0,1.8046875,1.03125t1.1279296875,2.6318359375t0.5908203125,3.56640625t0.236328125,3.8564453125t0.0859375,3.4482421875t0.150390625,2.3525390625q0.0859375,0.666015625,0.2900390625,1.4072265625t0.2041015625,1.3642578125q0,0.171875-0.2470703125,0.3330078125t-0.5263671875,0.2685546875t-0.5693359375,0.171875t-0.4189453125,0.064453125q-0.837890625,0-1.1923828125-1.2568359375t-0.4404296875-3.1474609375t-0.0859375-4.0927734375t-0.150390625-4.0927734375t-0.6123046875-3.1474609375t-1.4716796875-1.2998046875q-0.923828125,0-1.912109375,1.1923828125t-1.697265625,3.1689453125q-0.6875,1.9765625-0.9453125,4.490234375q-0.0859375,0.794921875-0.0859375,1.58984375q0,1.740234375,0.365234375,3.48046875q0.04296875,0.30078125-0.2470703125,0.451171875t-0.7197265625,0.236328125t-0.8701171875,0.107421875t-0.6767578125,0.021484375q-0.837890625,0-1.3427734375-0.5908203125t-0.7841796875-1.5146484375t-0.3759765625-2.0732421875t-0.1181640625-2.2666015625z"/><path fill="#" d="M128.55169921875,35.43505859375q0-0.595703125,0.92333984375-0.848876953125t1.51904296875-0.253173828125q0.68505859375,0,1.504150390625,0.1787109375t0.997802734375,0.92333984375q0.86376953125,3.48486328125,1.325439453125,7.103759765625t0.699951171875,7.282470703125t0.38720703125,7.282470703125t0.32763671875,7.163330078125q0.80419921875-3.54443359375,1.653076171875-7.044189453125t2.218994140625-6.984619140625l0-2.3828125q0-1.51904296875,1.057373046875-2.189208984375t2.844482421875-0.670166015625q0.1787109375,0,0.819091796875,0.08935546875t0.640380859375,0.595703125q-0.119140625,0.357421875-0.282958984375,0.68505859375t-0.163818359375,0.71484375q0,4.52734375,1.072265625,9.278076171875t2.11474609375,9.248291015625q0.595703125-3.84228515625,1.3701171875-7.65478515625t1.6083984375-7.59521484375q1.10205078125-5.0634765625,1.682861328125-8.414306640625t1.10205078125-5.3017578125t1.1318359375-2.77001953125t1.712646484375-0.819091796875q0.68505859375-0.0595703125,1.28076171875,0.23828125t0.4765625,0.98291015625q-2.14453125,10.365234375-4.006103515625,20.7900390625t-3.797607421875,20.849609375q0,0.595703125,0.20849609375,1.39990234375t0.20849609375,1.4296875q0,0.357421875-0.32763671875,0.595703125t-0.789306640625,0.402099609375t-1.0126953125,0.223388671875t-0.968017578125,0.0595703125q-0.92333984375,0-1.93603515625-0.282958984375t-1.310546875-1.623291015625q-1.04248046875-4.646484375-1.921142578125-9.337646484375t-1.623291015625-9.456787109375q-0.23828125,1.10205078125-0.44677734375,2.23388671875t-0.38720703125,2.29345703125q-0.86376953125,5.0634765625-1.90625,10.126953125t-1.04248046875,10.24609375q0,1.28076171875-0.5361328125,1.653076171875t-1.81689453125,0.372314453125q-0.98291015625,0-1.66796875-0.32763671875q-0.5361328125-0.2978515625-1.0126953125-0.5361328125q-0.4169921875-0.23828125-0.759521484375-0.551025390625t-0.342529296875-0.610595703125q-0.4765625-6.46337890625-0.670166015625-12.83740234375t-0.431884765625-12.83740234375q-0.23828125-5.80810546875-0.699951171875-11.601318359375t-1.027587890625-11.511962890625z M164.73083496094,69.39013671875q0-2.025390625,0.551025390625-3.90185546875t1.653076171875-3.350830078125t2.755126953125-2.35302734375t3.827392578125-0.878662109375q1.34033203125,0,2.963623046875,0.402099609375t3.052978515625,1.19140625t2.3828125,2.010498046875t0.953125,2.7998046875q0,0.74462890625-0.253173828125,1.1318359375t-1.027587890625,0.38720703125l-0.32763671875-0.0595703125q0.86376953125,2.3232421875,1.4892578125,4.765625t1.22119140625,4.884765625q0.23828125,0.4765625,0.357421875,0.848876953125t0.119140625,0.729736328125q0,0.4765625-0.26806640625,0.789306640625t-0.699951171875,0.461669921875t-0.8935546875,0.20849609375t-0.819091796875,0.0595703125q-1.28076171875,0-1.921142578125-0.44677734375t-0.92333984375-1.22119140625t-0.342529296875-1.742431640625t-0.23828125-1.950927734375q-0.357421875,1.16162109375-0.938232421875,2.263671875t-1.3701171875,1.980712890625t-1.861572265625,1.39990234375t-2.41259765625,0.521240234375q-1.9658203125,0-3.30615234375-1.1318359375t-2.159423828125-2.784912109375t-1.19140625-3.529541015625t-0.372314453125-3.48486328125z M168.96032714844,68.97314453125q0,1.10205078125,0.14892578125,2.3232421875t0.491455078125,2.41259765625t0.878662109375,2.248779296875t1.34033203125,1.861572265625q1.45947265625-1.57861328125,2.159423828125-3.84228515625t1.2509765625-4.363525390625t1.2509765625-3.60400390625t2.159423828125-1.504150390625q0.92333984375,0,1.548828125,0.32763671875q-0.2978515625-0.74462890625-0.98291015625-1.444580078125t-1.533935546875-1.28076171875t-1.75732421875-0.953125t-1.712646484375-0.372314453125q-0.23828125,0-0.551025390625,0.074462890625t-0.491455078125,0.014892578125q-1.22119140625,0.357421875-2.010498046875,1.236083984375t-1.28076171875,2.070068359375t-0.699951171875,2.4423828125t-0.20849609375,2.35302734375z M190.54473632813,79.9638671875q0-0.86376953125,0.074462890625-1.81689453125t0.134033203125-1.787109375l0.1787109375-4.4677734375q0.2978515625-5.361328125,0.729736328125-10.5439453125t0.729736328125-10.484375q0.1787109375-2.9189453125,0.26806640625-5.733642578125t0.26806640625-5.733642578125q-0.119140625-0.23828125-0.119140625-0.32763671875q0-0.4169921875,0.312744140625-0.6552734375t0.729736328125-0.402099609375t0.878662109375-0.223388671875t0.699951171875-0.0595703125l0.68505859375,0q0.92333984375,0.119140625,1.34033203125,0.580810546875t0.5361328125,1.10205078125t0.0595703125,1.3701171875t-0.0595703125,1.355224609375q0,4.31884765625-0.20849609375,8.801513671875t-0.4765625,8.9951171875t-0.491455078125,9.02490234375t-0.223388671875,8.920654296875l0,2.0849609375q0,1.39990234375-0.789306640625,1.8466796875t-2.189208984375,0.44677734375q-1.22119140625,0-2.14453125-0.5361328125t-0.92333984375-1.75732421875z M204.20629394531,81.48291015625l0.62548828125-0.74462890625q-0.119140625-5.00390625-0.26806640625-9.97802734375t-0.14892578125-9.888671875q0-6.10595703125,0.729736328125-11.809814453125t1.444580078125-11.690673828125q0.0595703125-0.357421875,0.342529296875-0.580810546875t0.699951171875-0.372314453125t0.848876953125-0.20849609375t0.789306640625-0.0595703125q0.4765625,0,1.19140625,0.1787109375t1.4296875,1.04248046875q0,0.2978515625,0.044677734375,0.521240234375t0.044677734375,0.521240234375q0,2.263671875-0.610595703125,4.85498046875t-0.819091796875,4.97412109375q-0.23828125,2.9189453125-0.32763671875,5.7783203125t-0.08935546875,5.80810546875l0.0595703125,2.62109375q0.595703125-0.74462890625,1.69775390625-1.90625t2.3828125-2.248779296875t2.5615234375-1.861572265625t2.3232421875-0.7744140625q1.57861328125,0,2.189208984375,0.8935546875t0.610595703125,2.35302734375q0,1.34033203125-0.580810546875,2.7998046875t-1.51904296875,2.844482421875t-2.129638671875,2.487060546875t-2.35302734375,1.63818359375q1.57861328125,1.9658203125,3.231689453125,3.7529296875t3.618896484375,3.36572265625l0,0.68505859375q-0.0595703125,0.2978515625-0.372314453125,0.44677734375t-0.68505859375,0.23828125t-0.729736328125,0.134033203125t-0.595703125,0.044677734375q-1.45947265625,0-2.814697265625-0.86376953125t-2.53173828125-2.11474609375t-2.218994140625-2.65087890625t-1.90625-2.4423828125q0.1787109375,3.42529296875,0.402099609375,6.835693359375t0.223388671875,6.835693359375q0,0.4169921875-0.372314453125,0.699951171875t-0.86376953125,0.431884765625t-0.997802734375,0.20849609375t-0.833984375,0.0595703125q-1.75732421875,0-2.487060546875-0.640380859375t-1.236083984375-2.218994140625z M210.31225097656,67.4541015625q0.74462890625,0,1.772216796875-0.640380859375t2.129638671875-1.593505859375t2.05517578125-2.010498046875t1.533935546875-2.010498046875t0.580810546875-1.533935546875t-0.80419921875-0.521240234375q-0.2978515625,0-1.22119140625,0.86376953125t-2.05517578125,2.11474609375t-2.263671875,2.71044921875t-1.7275390625,2.62109375z M228.32244140625,70.611328125q0-2.0849609375,0.461669921875-4.91455078125t1.563720703125-5.361328125t2.904052734375-4.303955078125t4.542236328125-1.772216796875q2.5615234375,0,3.84228515625,1.474365234375t1.28076171875,3.976318359375q0,1.63818359375-0.610595703125,3.589111328125t-1.742431640625,3.693359375t-2.6806640625,2.904052734375t-3.455078125,1.16162109375l-0.7744140625-0.0595703125q0,0.80419921875,0.23828125,2.159423828125t0.699951171875,2.695556640625t1.19140625,2.35302734375t1.772216796875,1.0126953125q1.51904296875,0,2.9189453125-1.22119140625t2.65087890625-2.71044921875t2.3232421875-2.71044921875t1.9658203125-1.22119140625q0.4765625,0,0.98291015625,0.14892578125t0.56591796875,0.833984375q0,0.4169921875-0.223388671875,0.68505859375t-0.402099609375,0.595703125q-0.92333984375,1.57861328125-2.010498046875,3.00830078125t-2.457275390625,2.59130859375t-2.993408203125,1.831787109375t-3.589111328125,0.670166015625q-2.5615234375,0-4.25927734375-0.908447265625t-2.740234375-2.4423828125t-1.504150390625-3.54443359375t-0.461669921875-4.214599609375z M233.653984375,68.34765625l0.833984375,0.74462890625q0.595703125,0.5361328125,1.19140625,0.23828125t1.072265625-1.087158203125t0.878662109375-1.950927734375t0.71484375-2.3828125t0.461669921875-2.3828125t0.14892578125-1.93603515625l0-1.0126953125t-0.08935546875-1.072265625t-0.312744140625-0.848876953125t-0.699951171875-0.431884765625q-0.14892578125-0.02978515625-0.26806640625-0.02978515625q-1.0126953125,0-1.7275390625,1.28076171875q-0.7744140625,1.4296875-1.2509765625,3.469970703125t-0.68505859375,4.184814453125t-0.26806640625,3.216796875z M253.21300292969,61.05029296875q0-1.22119140625,0.431884765625-2.05517578125t1.831787109375-0.833984375q0.5361328125,0,1.34033203125,0.163818359375t0.92333984375,0.819091796875q0.2978515625,1.75732421875,0.32763671875,3.8125t0.20849609375,3.8720703125q0.68505859375-1.34033203125,1.75732421875-2.88916015625t2.4423828125-2.859375t2.978515625-2.17431640625t3.2763671875-0.86376953125q0.119140625,0,0.44677734375,0.08935546875t0.610595703125,0.253173828125t0.342529296875,0.372314453125t-0.32763671875,0.38720703125q-0.119140625,0.357421875-0.50634765625,0.431884765625t-0.68505859375,0.074462890625q-0.1787109375,0-0.56591796875-0.14892578125q-2.2041015625,1.16162109375-3.7529296875,3.1572265625t-2.53173828125,4.423095703125t-1.4296875,5.123046875t-0.44677734375,5.257080078125q0,1.28076171875-0.580810546875,1.548828125t-1.861572265625,0.26806640625q-0.68505859375,0-1.444580078125-0.14892578125t-1.057373046875-0.953125q-0.5361328125-1.69775390625-0.878662109375-3.90185546875t-0.521240234375-4.542236328125t-0.253173828125-4.601806640625t-0.074462890625-4.08056640625z"/></svg>
